<svg xmlns="http://www.w3.org/2000/svg" xmlns:xlink="http://www.w3.org/1999/xlink" width="264px" height="280px" viewBox="0 0 264 280" version="1.1">
    <title id="transparent_Title">Avataaar/Default</title>
    <desc>Created with python_avatars</desc>
    <defs>
        <path d="M100,0 C130.927946,-5.68137151e-15 156,25.072054 156,56 L156.000809,62.1660527 C161.675838,63.1185422 166,68.05429 166,74 L166,88 C166,94.0524166 161.519235,99.0582945 155.693975,99.8813638 C153.627928,119.686472 141.237929,136.421678 124.001014,144.610469 L124,163 L128,163 C167.764502,163 200,195.235498 200,235 L200,244 L0,244 L0,235 C-4.86974701e-15,195.235498 32.235498,163 72,163 L76,163 L75.9999836,144.610943 C58.7625487,136.422324 46.3721119,119.686854 44.3051107,99.8809698 C38.480765,99.0582945 34,94.0524166 34,88 L34,74 C34,68.053942 38.3246685,63.1179645 44.0001873,62.1658855 L44,56 C44,25.072054 69.072054,5.68137151e-15 100,0 Z" id="transparent_path-1" />
        <path d="M83,36.3476251 C83,52.6289957 105.161905,65.8276544 132.5,65.8276544 C159.838095,65.8276544 182,52.6289957 182,36.3476251 C182,34.9853134 181.844841,33.6445843 181.544472,32.3313638 C210.784239,41.4879251 232,68.792221 232,101.051724 L232,110 L32,110 L32,101.051724 C32,68.3970853 53.7386736,40.8197864 83.5337207,32.0021267 C83.1821692,33.4207025 83,34.871494 83,36.3476251 Z" id="transparent_path-3" />
        <rect id="transparent_path-5" x="0" y="0" width="264" height="280" />
        <path d="M74,0 C114.869071,0 148,33.1309285 148,74 L148,84.1482318 L148,197.608051 C135.525121,187.236892 119.490913,181 102,181 L102,181 L98,181 L98,162.610951 C115.530782,154.282984 128.048193,137.114792 129.791419,116.867187 C135.569129,116.002364 140,111.018625 140,105 L140,105 L140,92 C140,87.3536213 137.359271,83.3240177 133.496777,81.3301515 C132.723933,81.0500337 131.951808,80.748163 131.180891,80.4262497 C130.794819,80.3202581 130.400778,80.2331546 130,80.1659169 L130,80.1659169 L130.000458,79.9172528 C117.224481,74.2339715 104.877985,63.0706967 96.1104311,47.8848473 C93.1752556,42.8009742 90.8310687,37.5951441 89.0661426,32.3970356 C80.4313947,42.9409152 67.7445474,53.6023901 52.3415164,62.4953343 C42.777598,68.0170651 33.1467898,72.2910056 24,75.2659587 L24.0003852,137.246608 C29.6019576,148.318362 38.7728825,157.277529 50,162.610951 L50,162.610951 L50,181 L46,181 C38.3273639,181 30.9350359,182.200142 24.0004995,184.422941 L24,230 C24,244.105888 13.5691766,255.775526 0,257.716445 L0,74 C0,33.1309285 33.1309285,0 74,0 Z" id="transparent_path-7" />
    </defs>
    <g id="transparent_Avataaar/Default" stroke="none" stroke-width="1" fill="none" fill-rule="evenodd">
        <g id="transparent_Body" transform="translate(32.000000, 36.000000)">
            <mask id="transparent_mask-2" fill="white">
                <use xlink:href="#transparent_path-1" />
            </mask>
            <use fill="#D0C6AC" xlink:href="#transparent_path-1" />
            <g id="transparent_Skin-Color" mask="url(#transparent_mask-2)" fill="#FD9841">
                <g transform="translate(-32.000000, 0.000000)" id="transparent_Color">
                    <rect x="0" y="0" width="264" height="244" />
                </g>
            </g>
            <path d="M44,94 C44,124.927946 69.072054,150 100,150 C130.927946,150 156,124.927946 156,94 L156,94 L156,102 C156,132.927946 130.927946,158 100,158 C69.072054,158 44,132.927946 44,102 Z" id="transparent_Neck-Shadow" fill-opacity="0.100000001" fill="#000000" mask="url(#transparent_mask-2)" />
        </g>
        <g id="transparent_Clothing" transform="translate(0.000000, 170.000000)">
            
        <defs>
        <path d="M99,32.5 C99,44.3741221 113.998461,54 132.5,54 C151.001539,54 166,44.3741221 166,32.5 C166,31.4019929 165.871751,30.3232102 165.624342,29.2694852 C202.75978,32.1370674 232,63.1796858 232,101.051724 L232,110 L32,110 L32,101.051724 C32,62.8342194 61.7761079,31.571298 99.3946469,29.196636 C99.1341902,30.2738104 99,31.3768477 99,32.5 Z" id="graphic_shirt_path-1" />
    </defs>
    <g id="graphic_shirt_Clothing/Graphic-Shirt" stroke="none" stroke-width="1" fill="none" fill-rule="evenodd">
        <mask id="graphic_shirt_mask-2" fill="white">
            <use xlink:href="#graphic_shirt_path-1" />
        </mask>
        <use id="graphic_shirt_Clothes" fill="#E6E6E6" xlink:href="#graphic_shirt_path-1" />
        <g id="graphic_shirt_Fabric-Color" mask="url(#graphic_shirt_mask-2)" fill="#3C4F5C">
            <rect id="graphic_shirt_ðŸ–Color" x="0" y="0" width="264" height="110" />
        </g>
        <g id="graphic_shirt_Graphic" fill="#FFFFFF" transform="translate(77.000000, 58.000000)">
        <g id="skull_Clothing/Graphic/Skull" stroke="none" stroke-width="1" fill="none" fill-rule="evenodd">
        <path d="M65.2820354,19.9288113 C64.9841617,22.7059411 59.588846,24.2025715 57.6102394,22.3766824 C56.6984983,21.5350479 56.6825881,19.8029182 56.4815012,18.6751632 C56.1014249,16.5420247 55.8256486,14.4172496 55.7306295,12.2519776 C55.6727342,10.9274596 55.3253621,9.86749314 56.7745135,9.67029008 C57.65797,9.55055964 58.5675014,10.137767 59.2896464,10.6026028 C61.736719,12.1758255 65.6201265,16.7414286 65.2820354,19.9288113 M52.8813831,14.0756657 C53.1659984,16.901216 54.2014853,21.8145656 51.9457767,24.1810024 C49.9296045,26.2960933 45.7863308,24.19905 45.1631825,21.7084809 C44.3897714,18.6188195 47.4383369,14.9274245 49.307782,12.8387447 C49.881874,12.1969544 51.151594,10.4256483 52.1442119,11.018578 C52.526056,11.2461539 52.8367463,13.6301981 52.8813831,14.0756657 M54.3212536,25.1062722 C54.9678252,23.5832306 61.2342228,28.1246236 58.2744891,30.2850536 C57.7918806,30.6376421 54.1148633,31.7513112 53.4099544,31.2274906 C51.9250051,30.1235056 53.8408548,26.2630794 54.3212536,25.1062722 M73.3250687,17.5267194 C72.8817937,2.05112066 53.065234,-2.31331777 42.4756895,6.50447654 C38.426551,9.87585667 36.113389,14.0039155 36.0073212,19.2826191 C35.9171635,23.7544627 36.6256081,27.9718792 40.0409914,31.0465744 C41.5219631,32.379896 42.5004386,33.1955596 43.2862243,35.0170469 C44.1095756,36.9234899 44.4852324,39.3524331 46.0280771,40.8495037 C46.8788292,41.6752915 48.1176128,42.3417322 49.2940816,41.8091079 C51.455655,40.8301355 50.7644465,37.8320326 51.4194152,36.1606486 C53.4559171,41.1294616 58.6302582,42.7141291 59.5694002,36.4097935 C60.6000257,38.2286397 63.2945899,40.610483 65.268335,38.6195243 C66.0806376,37.8003393 66.2030575,36.4705391 66.3409457,35.3929652 C66.5857855,33.4807998 66.1601884,32.7294032 67.6955199,31.4180909 C71.7349355,27.9683578 73.4691441,22.7464381 73.3250687,17.5267194" id="skull_Fill-49" fill="#FFFFFF" />
    </g>
</g>
    </g>
</g>
        <g id="transparent_Face" transform="translate(76.000000, 82.000000)" fill="#000000">
            <g id="transparent_Mouth" transform="translate(2.000000, 52.000000)">    
                
            <defs>
        <path d="M34.0082051,15.1361102 C35.1280248,29.123916 38.2345159,40.9925405 53.9961505,40.9999965 C69.757785,41.0074525 72.9169073,29.0566179 73.9942614,15.0063928 C74.0809675,13.8756222 73.1738581,12.9999965 72.0369872,12.9999965 C65.3505138,12.9999965 62.6703194,14.9936002 53.9894323,14.9999965 C45.3085452,15.0063928 40.7567994,12.9999965 36.0924943,12.9999965 C34.9490269,12.9999965 33.8961688,13.7366502 34.0082051,15.1361102 Z" id="scream_open_path-1" />
    </defs>
    <g id="scream_open_Mouth/Scream-Open" stroke="none" stroke-width="1" fill="none" fill-rule="evenodd">
        <mask id="scream_open_mask-2" fill="white">
            <use xlink:href="#scream_open_path-1" transform="translate(54.000000, 26.999998) scale(1, -1) translate(-54.000000, -26.999998)" />
        </mask>
        <use id="scream_open_Mouth" fill-opacity="0.699999988" fill="#000000" transform="translate(54.000000, 26.999998) scale(1, -1) translate(-54.000000, -26.999998)" xlink:href="#scream_open_path-1" />
        <path d="M44,2 L65,2 C67.7614237,2 70,4.23857625 70,7 L70,13 C70,15.7614237 67.7614237,18 65,18 L44,18 C41.2385763,18 39,15.7614237 39,13 L39,7 C39,4.23857625 41.2385763,2 44,2 Z" id="scream_open_Teeth" fill="#FFFFFF" mask="url(#scream_open_mask-2)" />
        <g id="scream_open_Tongue" mask="url(#scream_open_mask-2)" fill="#FF4F6D">
            <g transform="translate(38.000000, 32.000000)" id="scream_open_Say-ahhhh">
                <circle cx="11" cy="11" r="11" />
                <circle cx="21" cy="11" r="11" />
            </g>
        </g>
    </g>
</g>
            <g id="transparent_Nose" transform="translate(28.000000, 40.000000)" fill-opacity="0.16">
                
            <g id="default_Nose/Default" stroke="none" stroke-width="1" fill="none" fill-rule="evenodd" fill-opacity="0.16">
        <path d="M16,8 C16,12.418278 21.372583,16 28,16 L28,16 C34.627417,16 40,12.418278 40,8" id="default_Nose" fill="#000000" />
    </g>
</g>
            <g id="transparent_Eyes" transform="translate(0.000000, 8.000000)">
                
            <g id="default_Eyes/Default-ðŸ˜€" stroke="none" stroke-width="1" fill="none" fill-rule="evenodd" fill-opacity="0.599999964">
        <circle id="default_Eye" fill="#000000" cx="30" cy="22" r="6" />
        <circle id="default_Eye" fill="#000000" cx="82" cy="22" r="6" />
    </g>
</g>
            <g id="transparent_Eyebrow" fill-opacity="0.599999964">
                
            <g id="default_Eyebrow/Outline/Default" stroke="none" stroke-width="1" fill="none" fill-rule="evenodd" fill-opacity="0.599999964">
        <g id="default_I-Browse" transform="translate(12.000000, 6.000000)" fill="#000000" fill-rule="nonzero">
            <path d="M3.63024536,11.1585767 C7.54515501,5.64986673 18.2779197,2.56083721 27.5230268,4.83118046 C28.5957248,5.0946055 29.6788665,4.43856013 29.9422916,3.36586212 C30.2057166,2.2931641 29.5496712,1.21002236 28.4769732,0.94659732 C17.7403633,-1.69001789 5.31209962,1.88699832 0.369754639,8.84142326 C-0.270109626,9.74178291 -0.0589363917,10.9903811 0.84142326,11.6302454 C1.74178291,12.2701096 2.9903811,12.0589364 3.63024536,11.1585767 Z" id="default_Eyebrow" />
            <path d="M61.6302454,11.1585767 C65.545155,5.64986673 76.2779197,2.56083721 85.5230268,4.83118046 C86.5957248,5.0946055 87.6788665,4.43856013 87.9422916,3.36586212 C88.2057166,2.2931641 87.5496712,1.21002236 86.4769732,0.94659732 C75.7403633,-1.69001789 63.3120996,1.88699832 58.3697546,8.84142326 C57.7298904,9.74178291 57.9410636,10.9903811 58.8414233,11.6302454 C59.7417829,12.2701096 60.9903811,12.0589364 61.6302454,11.1585767 Z" id="default_Eyebrow" transform="translate(73.000154, 6.039198) scale(-1, 1) translate(-73.000154, -6.039198) " />
        </g>
    </g>
</g>
        </g>
        <g id="transparent_Top">
            
        <defs>
        <path d="M115.047127,11.5221924 C123.696621,7.68056516 136.518413,11.1815193 146,20 C155.565732,29.4156112 163.20059,50.1998818 158.656587,67.206592 C158.762179,68.4709859 158.815476,69.7499388 158.815476,71.0408963 L158.81538,92.8915741 C157.93388,87.918162 153.989047,84.0031135 149.000444,83.1659914 L149,83 C142.96334,61.4623862 125.226514,51.5783743 114.426942,41.7746242 C97.7068349,60.4842687 45.8737931,60.735696 27.5450892,96.8932694 L27,98 L27,108 C27,114.018777 31.4310943,119.002616 37.2090181,119.867253 C38.9518263,140.114813 51.4692242,157.28298 68.9999836,165.610943 L68.9989935,165.999757 C68.999329,165.999838 68.9996645,165.999919 69,166 C71.9303712,209.855112 62.358462,264.797432 0,248 C13.642322,240.016339 20.8468043,188.781043 21.001396,157.286981 L21,69.046252 C21,65.5176475 21.3973049,62.0818385 22.1496203,58.7811194 C25.2010611,38.7368957 36.7729938,22.8125737 50,13 C69.9046773,-1.75964173 103.442051,-6.01829672 115.047127,11.5221924 Z M158.81538,110.108426 L158.815476,111.47039 C158.815476,127.298552 162.572711,142.900645 169.7782,156.993609 L196.726668,209.701177 C203.690155,223.320818 201.645331,239.175364 192.789213,250.470883 C189.995202,213.661344 159.522394,184.58658 122.135045,184.008765 L121,184 L117,183.999002 L117.001014,165.610469 C134.530962,157.282467 147.047794,140.114995 148.791329,119.868237 C153.877493,119.106788 157.921483,115.151777 158.81538,110.108426 Z" id="straight_1_path-1" />
    </defs>
    <g id="straight_1_Top/Long-Hair/Straight" stroke="none" stroke-width="1" fill="none" fill-rule="evenodd">
        <g id="straight_1_Hair" transform="translate(39.000000, 15.000000)">
            <mask id="straight_1_mask-2" fill="white">
                <use xlink:href="#straight_1_path-1" />
            </mask>
            <use fill="#272C2E" xlink:href="#straight_1_path-1" />
            <g id="straight_1_Hair-Color" mask="url(#straight_1_mask-2)" fill="#724133">
                <g transform="translate(-39.000000, -15.000000)" id="straight_1_Color">
                    <rect x="0" y="0" width="264" height="280" />
                </g>
            </g>
        </g>
        <path d="M188.684881,96.9208507 L188.952,97.836113 L188.761365,97.2675805 C182.508878,79.1238261 165.090633,72.6061964 154.429684,64.2083647 C137.535357,80.6069148 84.8226408,80.6646674 67,113 C84.8233411,75.7383428 137.539499,75.6732531 154.431675,56.7748854 C165.044492,66.4131358 182.367415,76.1292263 188.684881,96.9208507 Z M188.952,97.836113 L188.959163,97.8569124 L189,98 L189,98 L188.952,97.836113 Z" id="straight_1_Shadow" fill-opacity="0.16" fill="#000000" />
        <g id="straight_1_Facial-Hair" transform="translate(49.000000, 72.000000)" />
        <g id="straight_1_Accessory" transform="translate(62.000000, 85.000000)" />
    </g>
</g>
    </g>
</svg>